<svg width="423" height="532" viewBox="0 0 423 532" fill="none" xmlns="http://www.w3.org/2000/svg">
<path fill-rule="evenodd" clip-rule="evenodd" d="M211.437 337.181L193.977 328.774C127.262 296.659 84.1513 228.062 84.1513 154.016V31.4099L85.631 30.6955C165.581 -7.79059 257.292 -7.79059 337.239 30.6955L338.719 31.4099V154.016C338.719 228.06 295.611 296.657 228.894 328.774L211.437 337.181V337.181Z" fill="#1166AF"/>
<path fill-rule="evenodd" clip-rule="evenodd" d="M85.5875 32.3112V154.017C85.5875 227.515 128.377 295.603 194.598 327.482L211.436 335.586L228.273 327.482C294.496 295.601 337.286 227.513 337.286 154.017V32.3112L336.619 31.9895C257.062 -6.30549 165.809 -6.30549 86.2543 31.9895L85.5875 32.3112V32.3112ZM211.436 338.773L193.354 330.068C126.143 297.715 82.7178 228.61 82.7178 154.017V30.5051L85.0084 29.4034C165.356 -9.2743 257.518 -9.2723 337.863 29.4034L340.156 30.5051V154.017C340.156 228.607 296.728 297.712 229.517 330.068L211.436 338.773V338.773Z" fill="white"/>
<path fill-rule="evenodd" clip-rule="evenodd" d="M211.44 12.9127C172.561 12.9127 133.195 21.2797 97.6001 37.1056L96.044 37.7985L94.3418 38.5571V40.4202V154.019C94.3418 224.167 135.19 289.158 198.404 319.592L210.197 325.257L211.44 325.855L212.684 325.257L224.476 319.592C287.692 289.156 328.538 224.165 328.538 154.019V40.4182V38.5524L326.834 37.7938L325.28 37.1056C289.659 21.2797 250.295 12.9127 211.44 12.9127ZM211.44 15.783C249.894 15.783 288.858 24.0622 324.117 39.7299L325.668 40.4182V154.019C325.668 223.07 285.46 287.045 223.233 317.003L211.44 322.668L199.65 317.003C137.42 287.045 97.2148 223.07 97.2148 154.019V40.4202L98.7655 39.7299C133.999 24.0622 172.961 15.783 211.44 15.783V15.783Z" fill="white"/>
<path fill-rule="evenodd" clip-rule="evenodd" d="M253.875 163.303H168.926V210.27C168.926 231.214 185.964 248.253 206.911 248.253H215.892C236.836 248.253 253.875 231.214 253.875 210.27V163.303V163.303ZM251.005 166.175V210.27C251.005 229.63 235.253 245.38 215.892 245.38H206.911C187.548 245.38 171.798 229.63 171.798 210.27V166.175H251.005Z" fill="white"/>
<path fill-rule="evenodd" clip-rule="evenodd" d="M211.374 197.354L209.282 195.262L211.374 193.17L213.466 195.262L211.374 197.354ZM211.374 190.197C208.578 190.197 206.31 192.465 206.31 195.262C206.31 198.058 208.578 200.326 211.374 200.326C214.171 200.326 216.439 198.058 216.439 195.262C216.439 192.465 214.171 190.197 211.374 190.197Z" fill="white"/>
<path fill-rule="evenodd" clip-rule="evenodd" d="M211.374 191.058C212.897 191.058 214.847 191.347 215.894 191.819C216.004 191.869 216.136 191.898 216.273 191.898H231.491C231.787 191.898 232.042 191.777 232.101 191.609L232.974 189.176C233.054 188.949 232.758 188.738 232.364 188.738H190.385C189.99 188.738 189.694 188.949 189.775 189.176L190.647 191.609C190.709 191.777 190.964 191.898 191.26 191.898H206.476C206.615 191.898 206.745 191.869 206.857 191.819C207.901 191.347 209.854 191.058 211.374 191.058Z" fill="white"/>
<path fill-rule="evenodd" clip-rule="evenodd" d="M192.608 217.519L196.582 202.693L200.554 217.519C200.575 217.594 200.644 217.649 200.721 217.649H203.171C203.287 217.649 203.369 217.54 203.341 217.429L198.317 198.684C198.1 197.873 198.1 197.022 198.317 196.211L199.262 192.683C199.291 192.572 199.208 192.463 199.092 192.463H196.645C196.565 192.463 196.497 192.518 196.475 192.593L189.82 217.429C189.792 217.54 189.875 217.649 189.99 217.649H192.439C192.518 217.649 192.586 217.594 192.608 217.519V217.519Z" fill="white"/>
<path fill-rule="evenodd" clip-rule="evenodd" d="M203.321 220.16C202.976 221.07 202.46 221.919 201.784 222.618C200.447 224.039 198.515 224.855 196.572 224.845V224.754C198.491 224.446 200.137 223.47 201.262 222.127C201.775 221.498 202.18 220.796 202.446 220.049L201.42 220.06C199.494 220.046 197.567 220.014 195.637 219.888C193.713 219.786 191.784 219.585 189.857 219.288V219.198L201.42 219.15L202.867 219.157H203.226C203.271 219.154 203.387 219.157 203.452 219.218C203.517 219.273 203.557 219.365 203.543 219.455C203.468 219.706 203.411 219.928 203.321 220.159V220.16ZM205.049 218.514H188.11C187.966 218.514 187.857 218.652 187.892 218.791C188.89 222.663 192.399 225.526 196.581 225.526C200.763 225.526 204.272 222.663 205.267 218.791C205.305 218.652 205.193 218.514 205.049 218.514V218.514Z" fill="white"/>
<path fill-rule="evenodd" clip-rule="evenodd" d="M230.195 217.519L226.221 202.693L222.25 217.519C222.228 217.594 222.16 217.649 222.079 217.649H219.632C219.516 217.649 219.434 217.54 219.462 217.429L224.486 198.684C224.703 197.873 224.703 197.022 224.486 196.211L223.54 192.683C223.51 192.572 223.595 192.463 223.708 192.463H226.157C226.238 192.463 226.306 192.518 226.328 192.593L232.983 217.429C233.011 217.54 232.929 217.649 232.813 217.649H230.363C230.285 217.649 230.215 217.594 230.195 217.519V217.519Z" fill="white"/>
<path fill-rule="evenodd" clip-rule="evenodd" d="M232.963 220.16C232.618 221.07 232.103 221.919 231.427 222.618C230.088 224.039 228.157 224.855 226.214 224.845V224.754C228.134 224.446 229.779 223.47 230.904 222.127C231.415 221.498 231.821 220.796 232.089 220.049L231.063 220.06C229.136 220.046 227.207 220.014 225.28 219.888C223.353 219.786 221.427 219.585 219.499 219.288V219.198L231.063 219.15L232.507 219.157H232.869C232.914 219.154 233.03 219.157 233.093 219.218C233.16 219.273 233.2 219.365 233.186 219.455C233.11 219.706 233.053 219.928 232.963 220.159V220.16ZM234.692 218.514H217.752C217.608 218.514 217.497 218.652 217.535 218.791C218.533 222.663 222.038 225.526 226.221 225.526C230.403 225.526 233.912 222.663 234.909 218.791C234.944 218.652 234.836 218.514 234.692 218.514V218.514Z" fill="white"/>
<path fill-rule="evenodd" clip-rule="evenodd" d="M214.809 181.539C214.944 181.891 215.13 182.229 215.203 182.598C214.437 184.279 213.588 185.922 212.792 187.591C213 187.591 213.206 187.596 213.409 187.598C213.409 187.837 213.407 188.078 213.404 188.319C212.628 188.482 211.846 188.652 211.113 188.969C210.465 189.243 209.931 189.711 209.418 190.182C209.411 189.319 209.416 188.456 209.416 187.593C209.548 187.593 209.815 187.59 209.948 187.59C209.153 185.931 208.316 184.29 207.548 182.618C207.602 182.238 207.801 181.897 207.935 181.543C208.846 179.318 209.778 177.105 210.674 174.873C210.383 174.469 210.626 174.101 211.019 173.932C211.014 175.71 210.976 177.49 210.879 179.266C210.423 179.508 209.962 179.914 210.007 180.484C209.953 181.217 210.666 181.82 211.366 181.803C212.135 181.831 212.879 181.115 212.732 180.325C212.699 179.824 212.271 179.5 211.876 179.268C211.81 177.49 211.746 175.712 211.737 173.937C212.139 174.077 212.376 174.486 212.092 174.876C212.983 177.103 213.902 179.318 214.809 181.538L214.809 181.539Z" fill="white"/>
<path fill-rule="evenodd" clip-rule="evenodd" d="M210.526 223.371C212.065 223.272 213.623 223.535 215.1 223.96C215.174 223.982 215.247 224.002 215.32 224.024C216.067 224.27 216.788 224.594 217.472 224.986C217.725 225.133 217.971 225.288 218.212 225.452C219.091 226.052 219.886 226.776 220.559 227.601C216.734 227.903 212.916 228.273 209.102 228.71C213.247 228.802 217.394 228.824 221.538 228.771C221.657 229.027 221.77 229.282 221.888 229.539C214.878 229.542 207.871 229.542 200.863 229.544C201.942 227.504 203.644 225.799 205.682 224.717C207.103 223.963 208.656 223.542 210.254 223.393C210.343 223.384 210.436 223.377 210.526 223.371V223.371Z" fill="white"/>
<path fill-rule="evenodd" clip-rule="evenodd" d="M213.781 223.909H208.968L207.036 218.214L209.45 201.218L211.374 197.819L213.299 201.218L215.713 218.214L213.781 223.909V223.909Z" fill="white"/>
<path fill-rule="evenodd" clip-rule="evenodd" d="M213.467 190.319H209.415V187.593H213.467V190.319Z" fill="white"/>
<path fill-rule="evenodd" clip-rule="evenodd" d="M180.646 144.244C183.724 150.311 187.693 155.405 192.273 159.2C192.204 159.654 192.136 160.108 192.067 160.564C178.147 154.838 167.298 143.123 162.789 128.629C166.659 134.912 172.877 140.303 180.646 144.244V144.244ZM174.82 126.65C175.749 131.775 177.211 136.605 179.119 141.015C169.888 135.714 163.38 128.187 161.264 119.621C164.106 122.427 168.87 124.789 174.82 126.65ZM173.674 114.64C173.721 117.931 173.972 121.153 174.427 124.272C166.416 121.567 161.515 118.089 160.659 114.64H173.674ZM174.427 102.852C173.972 105.973 173.721 109.195 173.674 112.486H160.659C161.515 109.034 166.416 105.559 174.427 102.852ZM179.119 86.1112C177.211 90.5181 175.749 95.3507 174.82 100.476C168.87 102.334 164.106 104.698 161.264 107.502C163.38 98.9367 169.888 91.4095 179.119 86.1112V86.1112ZM196.261 65.0252C189.977 68.8954 184.587 75.1105 180.646 82.8817C172.877 86.8229 166.662 92.213 162.789 98.4971C167.742 82.572 180.336 69.9777 196.261 65.0252ZM198.24 77.0566C193.114 77.9854 188.284 79.4464 183.875 81.3523C189.176 72.1249 196.703 65.6163 205.268 63.4999C202.462 66.3421 200.101 71.1056 198.24 77.0566V77.0566ZM210.25 62.8927V75.91C206.959 75.9569 203.736 76.2075 200.618 76.6639C203.323 68.6514 206.8 63.7485 210.25 62.8927ZM210.25 95.6462C205.63 95.6791 200.997 95.9203 196.5 96.36C197.259 89.7026 198.436 83.844 199.892 78.9619C203.233 78.4231 206.696 78.1134 210.25 78.0612V95.6462ZM210.25 112.486H195.566C195.597 107.538 195.845 102.864 196.271 98.5065C200.627 98.0809 205.304 97.833 210.25 97.7995V112.486V112.486ZM210.25 116.425C207.954 116.384 205.623 116.37 203.37 116.358C200.616 116.344 197.937 116.328 195.595 116.264C195.583 115.725 195.568 115.188 195.566 114.64H210.25V116.425ZM177.144 99.7905C178.237 94.2416 179.974 89.076 182.232 84.4659C186.84 82.2081 192.005 80.4724 197.554 79.378C196.129 84.5175 195.048 90.3928 194.349 96.5845C188.156 97.2841 182.284 98.3651 177.144 99.7905ZM193.41 112.486H184.249C182.653 110.326 182.18 107.923 182.149 107.757L181.547 104.398L180.111 107.497C179.279 109.297 178.667 110.954 178.237 112.486H175.828C175.88 108.93 176.187 105.469 176.725 102.129C181.608 100.672 187.466 99.4923 194.124 98.7337C193.684 103.231 193.445 107.867 193.41 112.486V112.486ZM189.209 115.758C188.156 115.541 187.258 115.143 186.488 114.64H193.41C193.415 115.153 193.429 115.668 193.441 116.181C191.68 116.096 190.216 115.966 189.209 115.758ZM180.015 125.891C178.875 125.607 177.773 125.31 176.725 124.997C176.187 121.657 175.88 118.193 175.828 114.64H177.733C176.799 119.739 178.073 123.264 180.015 125.891V125.891ZM184.849 130.562C191.344 135.759 196.358 142.086 195.372 143.84C195.098 144.327 194.774 145.464 194.419 147.043C190.055 145.963 185.96 144.485 182.232 142.657C179.972 138.05 178.237 132.885 177.144 127.336C178.87 127.813 180.683 128.25 182.558 128.648C183.339 129.355 184.123 129.983 184.849 130.562ZM192.658 156.748C189.327 153.795 186.355 150.088 183.875 145.772C187.039 147.14 190.431 148.261 193.984 149.138C193.559 151.299 193.107 153.93 192.658 156.748ZM212.404 114.64H227.087C227.08 115.881 227.05 117.094 227.014 118.297C226.856 118.238 226.711 118.174 226.551 118.115C223.587 117.023 218.229 116.63 212.404 116.474V114.64V114.64ZM212.404 97.7995C217.349 97.833 222.026 98.0809 226.383 98.5065C226.809 102.864 227.057 107.538 227.087 112.486H212.404V97.7995V97.7995ZM212.404 78.0612C215.957 78.1134 219.421 78.4231 222.761 78.9619C224.217 83.844 225.395 89.7026 226.156 96.36C221.657 95.9203 217.023 95.6791 212.404 95.6462V78.0612ZM212.404 62.8927C215.856 63.7485 219.331 68.6514 222.035 76.6639C218.917 76.2075 215.695 75.9569 212.404 75.91V62.8927ZM238.779 81.3523C234.37 79.4464 229.539 77.9854 224.414 77.0566C222.553 71.1056 220.192 66.3421 217.388 63.4999C225.953 65.6163 233.478 72.1249 238.779 81.3523V81.3523ZM259.864 98.4971C255.992 92.213 249.776 86.8229 242.008 82.8817C238.067 75.1105 232.677 68.8954 226.392 65.0252C242.318 69.9777 254.912 82.572 259.864 98.4971ZM247.833 100.476C246.904 95.3507 245.443 90.5181 243.535 86.1112C252.765 91.4095 259.273 98.9367 261.39 107.502C258.546 104.698 253.784 102.334 247.833 100.476V100.476ZM248.98 112.486C248.933 109.195 248.682 105.973 248.224 102.852C256.238 105.557 261.139 109.034 261.995 112.486H248.98V112.486ZM248.224 124.272C248.682 121.153 248.933 117.931 248.98 114.64H261.995C261.139 118.089 256.238 121.567 248.224 124.272V124.272ZM251.001 135.717C250.888 135.497 250.772 135.268 250.649 135.022C249.833 133.392 248.448 132.094 246.869 131.066C247.231 129.617 247.562 128.148 247.833 126.65C253.784 124.789 258.546 122.427 261.39 119.621C259.903 125.638 256.243 131.137 251.001 135.717V135.717ZM226.392 162.101C232.677 158.228 238.067 152.013 242.008 144.244C244.275 143.093 246.398 141.811 248.377 140.428C248.862 140.54 249.285 140.644 249.647 140.733C251.072 141.091 251.933 141.306 252.517 140.56C253.065 139.865 252.803 139.197 252.001 137.643C255.181 134.934 257.846 131.903 259.864 128.629C254.912 144.554 242.318 157.148 226.392 162.101V162.101ZM221.784 162.103C221.671 161.63 221.558 161.155 221.444 160.687C221.262 159.919 221.116 159.204 220.983 158.512C222.265 156.115 223.414 153.268 224.414 150.069C229.539 149.141 234.37 147.679 238.779 145.772C234.407 153.384 228.518 159.131 221.784 162.103V162.103ZM220.771 150.623C221.191 150.571 221.617 150.521 222.035 150.459C221.544 151.918 221.026 153.254 220.487 154.495C220.421 153.006 220.52 151.729 220.771 150.623V150.623ZM223.404 145.854C223.196 146.646 222.983 147.419 222.761 148.164C222.374 148.228 221.979 148.275 221.589 148.332C222.066 147.4 222.683 146.599 223.404 145.854ZM226.09 143.757C228.516 142.329 231.547 141.381 233.731 140.698C234.899 140.334 235.821 140.045 236.45 139.759C237.327 139.362 239.391 139.274 241.852 139.452C241.4 140.546 240.93 141.622 240.422 142.657C235.814 144.915 230.648 146.651 225.099 147.745C225.454 146.464 225.778 145.124 226.09 143.757ZM244.079 139.674C244.526 139.731 244.975 139.794 245.429 139.863C244.812 140.256 244.183 140.644 243.535 141.015C243.727 140.575 243.899 140.123 244.079 139.674ZM228.305 96.5844C227.606 90.3927 226.525 84.5174 225.099 79.3779C230.648 80.4723 235.814 82.208 240.422 84.4658C242.679 89.0759 244.417 94.2415 245.51 99.7904C240.369 98.365 234.497 97.284 228.305 96.5844ZM229.241 112.486C229.211 107.866 228.969 103.23 228.53 98.7336C235.187 99.4922 241.046 100.672 245.928 102.129C246.467 105.469 246.774 108.93 246.826 112.486H229.241V112.486ZM245.928 124.997C243.415 125.746 240.62 126.413 237.613 126.997C236.795 124.936 234.667 121.796 229.13 119.193C229.187 117.678 229.232 116.16 229.241 114.64H246.826C246.774 118.193 246.467 121.656 245.928 124.997ZM244.925 129.965C243.597 129.312 242.242 128.813 241.039 128.439C242.578 128.099 244.077 127.733 245.51 127.335C245.335 128.224 245.136 129.097 244.925 129.965ZM191.738 162.763C191.606 163.664 191.476 164.564 191.348 165.458H193.528C194.954 155.564 196.486 146.256 197.249 144.894C200.001 140.007 186.759 129.333 186.194 128.882C181.194 124.884 177.359 120.718 180.957 111.047C182.057 113.569 184.324 116.952 188.774 117.867C191.58 118.446 197.039 118.476 203.358 118.512C211.947 118.562 221.683 118.616 225.806 120.137C234.199 123.227 235.662 127.532 235.913 128.778L236.06 129.516L236.804 129.631C236.899 129.646 246.306 131.153 248.722 135.984C249.145 136.832 249.512 137.532 249.815 138.109C249.906 138.284 249.996 138.457 250.084 138.624C249.705 138.53 249.269 138.421 248.767 138.307C245.075 137.468 238.223 136.586 235.561 137.799C235.05 138.031 234.142 138.315 233.09 138.643C230.033 139.598 225.414 141.043 222.558 143.669C218.196 147.689 217.298 152.601 219.35 161.188C219.687 162.595 220.033 164.032 220.38 165.458H222.595C222.584 165.408 222.572 165.361 222.56 165.311C246.386 160.143 264.298 138.915 264.298 113.562C264.298 84.3546 240.535 60.592 211.328 60.592C182.118 60.592 158.356 84.3546 158.356 113.562C158.356 135.853 172.201 154.956 191.738 162.763V162.763Z" fill="white"/>
<path fill-rule="evenodd" clip-rule="evenodd" d="M177.164 230.247C142.531 216.58 117.958 182.789 117.958 143.358C117.958 103.856 142.614 70.0052 177.346 56.3875C157.594 68.057 144.316 89.5712 144.316 114.13C144.316 135.987 154.839 155.43 171.081 167.67V165.457H172.906C157.3 153.747 147.186 135.096 147.186 114.13C147.186 78.7715 175.947 50.0042 211.301 49.9874H211.327V47.1178C158.26 47.1178 115.088 90.2896 115.088 143.358C115.088 185.678 142.543 221.705 180.58 234.561C179.334 233.214 178.193 231.774 177.164 230.247V230.247Z" fill="white"/>
<path fill-rule="evenodd" clip-rule="evenodd" d="M211.327 47.1178V49.9874H211.353C246.707 50.0042 275.467 78.7715 275.467 114.13C275.467 135.096 265.353 153.747 249.748 165.457H251.721V167.559C267.881 155.314 278.337 135.921 278.337 114.13C278.337 89.5712 265.062 68.057 245.307 56.3875C280.04 70.0052 304.696 103.856 304.696 143.358C304.696 182.713 280.217 216.452 245.688 230.169C244.667 231.694 243.532 233.139 242.296 234.486C280.217 221.566 307.568 185.597 307.568 143.358C307.568 90.2896 264.393 47.1178 211.327 47.1178V47.1178Z" fill="white"/>
<path fill-rule="evenodd" clip-rule="evenodd" d="M234.665 287.929C232.946 287.929 230.974 287.691 228.755 287.078C218.856 284.343 217.045 277.132 217.045 277.132C217.045 277.132 216.936 285.726 223.22 290.972C223.22 290.972 215.882 298.795 211.456 299.812L211.402 299.826L211.345 299.812C206.922 298.795 199.583 290.972 199.583 290.972C205.865 285.726 205.756 277.132 205.756 277.132C205.756 277.132 203.947 284.343 194.048 287.078C191.826 287.691 189.857 287.929 188.138 287.929C182.199 287.929 179.253 285.088 179.253 285.088C179.253 285.088 182.554 284.509 192.24 278.624C201.924 272.739 201.418 265.198 201.418 265.198C201.418 265.198 197.561 273.401 186.918 275.227C185.029 275.551 183.402 275.683 182.003 275.683C175.516 275.683 173.932 272.822 173.932 272.822C173.932 272.822 191.387 266.193 196.708 259.396C202.03 252.602 201.392 247.185 201.392 247.185H211.345H211.456H221.409C221.409 247.185 220.77 252.602 226.092 259.396C231.414 266.193 248.869 272.822 248.869 272.822C248.869 272.822 247.287 275.683 240.8 275.683C239.4 275.683 237.772 275.551 235.885 275.227C225.241 273.401 221.386 265.198 221.386 265.198C221.386 265.198 220.877 272.739 230.563 278.624C240.249 284.509 243.547 285.088 243.547 285.088C243.547 285.088 240.604 287.929 234.665 287.929V287.929ZM242.06 279.958C249.666 279.57 252.193 275.713 252.637 274.91L255.047 270.56L250.398 268.796C244.079 266.391 232.814 260.992 229.485 256.741C225.669 251.871 225.674 248.152 225.696 247.646L226.199 244.587C222.934 245.568 219.475 246.1 215.894 246.1H206.91C203.326 246.1 199.867 245.565 196.599 244.587L197.108 247.646C197.129 248.154 197.131 251.873 193.318 256.741C189.989 260.992 178.721 266.391 172.402 268.796L167.759 270.565L170.165 274.91C170.61 275.713 173.139 279.57 180.74 279.958C179.393 280.558 178.667 280.787 178.442 280.854L169.364 281.841L176.262 288.187C176.693 288.603 180.677 292.237 188.138 292.237C190.079 292.237 192.102 291.986 194.166 291.494L196.443 293.92C198.368 295.972 205.051 302.753 210.333 303.999L210.356 304.006L211.399 304.266L212.444 304.006L212.468 303.999C217.751 302.755 224.433 295.972 226.36 293.92L228.636 291.494C230.7 291.986 232.724 292.237 234.665 292.237C242.127 292.237 246.11 288.603 246.538 288.187L253.158 281.801L244.36 280.854C244.134 280.787 243.408 280.558 242.06 279.958V279.958Z" fill="white"/>
<path fill-rule="evenodd" clip-rule="evenodd" d="M145.028 257.097L144.771 255.48L145.964 255.241V246.167L144.808 246.039V244.403H153.182L153.533 248.151H152.1L151.345 246.333H148.371V249.603H151.164V251.532H148.371V255.17H151.475L152.156 253.349H153.606L153.22 257.097H145.028V257.097Z" fill="white"/>
<path fill-rule="evenodd" clip-rule="evenodd" d="M158.657 257.171C157.948 257.171 157.267 257.081 156.619 256.903C155.969 256.728 155.402 256.539 154.91 256.343L155.276 252.797L156.82 252.927L156.969 254.965C157.127 255.003 157.344 255.057 157.619 255.131C157.895 255.204 158.206 255.241 158.548 255.241C158.938 255.241 159.297 255.19 159.622 255.085C159.945 254.981 160.21 254.818 160.411 254.599C160.614 254.379 160.714 254.09 160.714 253.735C160.714 253.404 160.629 253.133 160.459 252.918C160.286 252.702 160.033 252.502 159.695 252.312C159.357 252.123 158.927 251.911 158.401 251.679C157.921 251.456 157.482 251.234 157.078 251.007C156.674 250.78 156.321 250.527 156.021 250.246C155.721 249.964 155.487 249.631 155.314 249.243C155.144 248.858 155.059 248.39 155.059 247.839C155.059 247.128 155.25 246.518 155.635 246.002C156.021 245.489 156.541 245.092 157.196 244.808C157.853 244.527 158.572 244.385 159.354 244.385C159.99 244.385 160.614 244.435 161.219 244.534C161.825 244.631 162.366 244.747 162.846 244.882L163.12 248.371H161.579L160.678 246.425C160.518 246.402 160.323 246.376 160.089 246.352C159.858 246.329 159.638 246.314 159.43 246.314C159 246.314 158.647 246.38 158.373 246.508C158.096 246.636 157.893 246.804 157.758 247.014C157.624 247.222 157.555 247.454 157.555 247.711C157.555 247.955 157.63 248.172 157.785 248.361C157.938 248.553 158.139 248.723 158.392 248.877C158.642 249.031 158.912 249.17 159.198 249.3C159.487 249.428 159.766 249.56 160.035 249.693C160.756 250.038 161.355 250.381 161.825 250.724C162.298 251.066 162.647 251.451 162.882 251.88C163.116 252.31 163.232 252.818 163.232 253.404C163.232 254.09 163.099 254.672 162.836 255.15C162.572 255.627 162.22 256.017 161.78 256.317C161.338 256.617 160.846 256.833 160.303 256.97C159.756 257.102 159.207 257.171 158.657 257.171V257.171Z" fill="white"/>
<path fill-rule="evenodd" clip-rule="evenodd" d="M166.483 257.097L166.298 255.627L168.411 255.224V246.333H166.336L165.546 248.17H164.13L164.48 244.403H174.674L175.079 248.151H173.682L172.875 246.333H170.78V255.224L172.911 255.627L172.729 257.097H166.483V257.097Z" fill="white"/>
<path fill-rule="evenodd" clip-rule="evenodd" d="M176.823 257.171C176.492 257.171 176.204 257.05 175.961 256.814C175.715 256.575 175.592 256.284 175.592 255.939C175.592 255.596 175.715 255.31 175.961 255.076C176.204 254.845 176.492 254.729 176.823 254.729C177.166 254.729 177.457 254.845 177.696 255.076C177.934 255.31 178.055 255.596 178.055 255.939C178.055 256.284 177.934 256.575 177.696 256.814C177.457 257.05 177.166 257.171 176.823 257.171Z" fill="white"/>
<path fill-rule="evenodd" clip-rule="evenodd" d="M244.104 257.097L243.828 255.61C244.036 255.364 244.355 255.019 244.783 254.572C245.211 254.125 245.676 253.622 246.18 253.064C246.682 252.508 247.164 251.927 247.629 251.322C248.095 250.714 248.478 250.123 248.779 249.548C249.079 248.971 249.228 248.451 249.228 247.986C249.228 247.595 249.159 247.283 249.017 247.049C248.878 246.817 248.689 246.645 248.457 246.536C248.225 246.425 247.954 246.37 247.651 246.37C247.405 246.37 247.192 246.385 247.015 246.415C246.838 246.446 246.682 246.494 246.547 246.555L245.738 248.465L243.388 247.271C243.828 246.475 244.449 245.803 245.251 245.259C246.055 244.713 246.975 244.442 248.017 244.442C248.445 244.442 248.878 244.505 249.313 244.635C249.746 244.763 250.15 244.964 250.523 245.241C250.897 245.517 251.197 245.874 251.424 246.314C251.649 246.756 251.764 247.288 251.764 247.912C251.764 248.477 251.637 249.052 251.379 249.64C251.122 250.227 250.79 250.799 250.386 251.356C249.982 251.915 249.554 252.442 249.1 252.936C248.646 253.433 248.22 253.869 247.824 254.25C247.426 254.631 247.109 254.936 246.878 255.17H250.313L251.065 253.149H252.497L252.093 257.097H244.104V257.097Z" fill="white"/>
<path fill-rule="evenodd" clip-rule="evenodd" d="M258.414 255.242C258.891 255.242 259.274 255.097 259.56 254.809C259.848 254.523 260.073 254.152 260.231 253.698C260.39 253.246 260.498 252.762 260.553 252.246C260.61 251.733 260.636 251.251 260.636 250.797C260.636 250.343 260.61 249.861 260.553 249.345C260.498 248.833 260.39 248.348 260.231 247.896C260.073 247.443 259.848 247.071 259.56 246.783C259.274 246.494 258.891 246.352 258.414 246.352C257.948 246.352 257.572 246.494 257.283 246.783C256.995 247.071 256.775 247.443 256.624 247.896C256.47 248.348 256.366 248.833 256.309 249.345C256.255 249.861 256.226 250.343 256.226 250.797C256.226 251.251 256.255 251.733 256.309 252.246C256.366 252.762 256.47 253.246 256.624 253.698C256.775 254.152 256.995 254.523 257.283 254.809C257.572 255.097 257.948 255.242 258.414 255.242ZM258.414 257.171C257.543 257.171 256.808 256.989 256.207 256.629C255.61 256.268 255.122 255.781 254.749 255.168C254.375 254.556 254.106 253.871 253.94 253.112C253.775 252.353 253.692 251.582 253.692 250.797C253.692 250.001 253.775 249.223 253.94 248.464C254.106 247.705 254.375 247.022 254.749 246.416C255.122 245.811 255.61 245.326 256.207 244.964C256.808 244.603 257.543 244.423 258.414 244.423C259.283 244.423 260.021 244.603 260.628 244.964C261.232 245.326 261.723 245.811 262.097 246.416C262.47 247.022 262.742 247.705 262.912 248.464C263.085 249.223 263.17 250.001 263.17 250.797C263.17 251.582 263.085 252.353 262.912 253.112C262.742 253.871 262.47 254.556 262.097 255.168C261.723 255.781 261.232 256.268 260.628 256.629C260.021 256.989 259.283 257.171 258.414 257.171Z" fill="white"/>
<path fill-rule="evenodd" clip-rule="evenodd" d="M264.824 257.097L264.549 255.61C264.755 255.364 265.074 255.019 265.504 254.572C265.932 254.125 266.398 253.622 266.899 253.064C267.4 252.508 267.885 251.927 268.351 251.322C268.814 250.714 269.2 250.123 269.5 249.548C269.798 248.971 269.947 248.451 269.947 247.986C269.947 247.595 269.878 247.283 269.739 247.049C269.596 246.817 269.407 246.645 269.176 246.536C268.944 246.425 268.675 246.37 268.37 246.37C268.124 246.37 267.914 246.385 267.734 246.415C267.557 246.446 267.4 246.494 267.268 246.555L266.457 248.465L264.107 247.271C264.55 246.475 265.169 245.803 265.97 245.259C266.774 244.713 267.696 244.442 268.736 244.442C269.164 244.442 269.597 244.505 270.032 244.635C270.467 244.763 270.869 244.964 271.242 245.241C271.618 245.517 271.916 245.874 272.143 246.314C272.37 246.756 272.484 247.288 272.484 247.912C272.484 248.477 272.356 249.052 272.098 249.64C271.84 250.227 271.509 250.799 271.105 251.356C270.701 251.915 270.273 252.442 269.819 252.936C269.365 253.433 268.942 253.869 268.542 254.25C268.145 254.631 267.829 254.936 267.597 255.17H271.032L271.784 253.149H273.219L272.815 257.097H264.824Z" fill="white"/>
<path fill-rule="evenodd" clip-rule="evenodd" d="M279.132 255.242C279.609 255.242 279.993 255.097 280.279 254.809C280.567 254.523 280.792 254.152 280.95 253.698C281.109 253.246 281.217 252.762 281.271 252.246C281.328 251.733 281.354 251.251 281.354 250.797C281.354 250.343 281.328 249.861 281.271 249.345C281.217 248.833 281.109 248.348 280.95 247.896C280.792 247.443 280.567 247.071 280.279 246.783C279.993 246.494 279.609 246.352 279.132 246.352C278.666 246.352 278.291 246.494 278.002 246.783C277.714 247.071 277.494 247.443 277.342 247.896C277.189 248.348 277.085 248.833 277.028 249.345C276.974 249.861 276.945 250.343 276.945 250.797C276.945 251.251 276.974 251.733 277.028 252.246C277.085 252.762 277.189 253.246 277.342 253.698C277.494 254.152 277.714 254.523 278.002 254.809C278.291 255.097 278.666 255.242 279.132 255.242ZM279.132 257.171C278.262 257.171 277.527 256.989 276.926 256.629C276.328 256.268 275.841 255.781 275.468 255.168C275.094 254.556 274.825 253.871 274.659 253.112C274.493 252.353 274.411 251.582 274.411 250.797C274.411 250.001 274.493 249.223 274.659 248.464C274.825 247.705 275.094 247.022 275.468 246.416C275.841 245.811 276.328 245.326 276.926 244.964C277.527 244.603 278.262 244.423 279.132 244.423C280.002 244.423 280.74 244.603 281.345 244.964C281.95 245.326 282.442 245.811 282.815 246.416C283.189 247.022 283.461 247.705 283.631 248.464C283.804 249.223 283.889 250.001 283.889 250.797C283.889 251.582 283.804 252.353 283.631 253.112C283.461 253.871 283.189 254.556 282.815 255.168C282.442 255.781 281.95 256.268 281.345 256.629C280.74 256.989 280.002 257.171 279.132 257.171Z" fill="white"/>
<path fill-rule="evenodd" clip-rule="evenodd" d="M203.612 364.784L201.697 362.952C219.816 343.988 254.487 328.995 262.778 326.016C324.273 303.923 362.277 240.851 353.147 176.044L355.769 175.675C365.076 241.719 326.344 305.993 263.674 328.51C256.002 331.265 221.199 346.379 203.612 364.784V364.784Z" fill="#1166AF"/>
<path fill-rule="evenodd" clip-rule="evenodd" d="M299.375 335.736C297.238 337.138 294.304 337.885 291.138 338.164C287.97 338.443 284.566 338.235 281.254 337.374C274.464 335.334 269.96 331.455 268.376 327.634C270.445 326.819 273.029 326.459 275.946 326.556C278.805 326.525 281.944 326.823 285.251 327.66C288.535 328.466 291.579 329.724 293.99 331.055C296.396 332.381 298.283 333.979 299.375 335.736V335.736Z" fill="#1166AF"/>
<path fill-rule="evenodd" clip-rule="evenodd" d="M275.495 295.717C274.017 296.797 272.473 298.249 271.126 300.294C269.775 302.332 268.603 304.947 267.674 307.935C265.679 313.586 265.222 319.503 266.683 323.373C268.662 322.527 270.688 320.99 272.464 318.964C274.18 316.805 275.587 314.039 276.516 311.051C277.429 308.029 277.762 305.195 277.511 302.521C277.256 299.84 276.533 297.509 275.495 295.717V295.717Z" fill="#1166AF"/>
<path fill-rule="evenodd" clip-rule="evenodd" d="M324.37 317.332C323.411 318.171 322.28 318.954 321.02 319.649C319.774 320.362 318.38 320.961 316.812 321.348C313.729 322.185 310.305 322.568 306.878 322.337C303.485 322.162 300.383 321.19 297.91 319.904C295.44 318.625 293.577 317.012 292.43 315.289C296.331 313.131 302.161 311.69 309.034 312.151C312.504 312.436 315.505 312.826 318.164 313.724C320.798 314.589 322.964 315.811 324.37 317.332V317.332Z" fill="#1166AF"/>
<path fill-rule="evenodd" clip-rule="evenodd" d="M293.336 282.565C292.666 283.186 292.056 283.967 291.508 284.891C290.971 285.829 290.479 286.886 289.969 287.969C289.002 290.192 288.302 292.924 287.943 296.019C287.621 299.166 287.539 302.062 287.85 304.689C288.165 307.325 288.867 309.668 289.957 311.427C293.681 309.24 296.567 303.644 297.302 297.504C297.719 294.478 297.286 291.366 296.575 288.832C295.837 286.267 294.693 284.127 293.336 282.565V282.565Z" fill="#1166AF"/>
<path fill-rule="evenodd" clip-rule="evenodd" d="M345.467 294.604C343.859 296.585 341.533 298.46 338.783 299.958C336.06 301.481 332.596 302.349 329.189 302.767C325.737 303.153 322.619 302.89 320.009 302.157C317.347 301.373 315.184 300.115 313.739 298.642C315.484 297.25 317.539 295.746 320.245 294.712C322.877 293.611 326.133 292.925 329.423 292.405C336.001 291.374 342.129 292.157 345.467 294.604V294.604Z" fill="#1166AF"/>
<path fill-rule="evenodd" clip-rule="evenodd" d="M308.44 266.303C307.32 267.745 306.543 269.769 306.128 272.239C305.738 274.729 305.391 277.391 305.625 280.5C305.817 283.571 306.388 286.538 307.252 289.122C308.067 291.654 309.172 293.794 310.578 295.321C312.231 293.933 313.33 291.543 314.183 288.961C314.968 286.311 315.474 283.424 315.141 280.23C314.483 273.833 311.699 268.854 308.44 266.303V266.303Z" fill="#1166AF"/>
<path fill-rule="evenodd" clip-rule="evenodd" d="M361.964 268.34C360.732 270.575 358.737 272.82 356.273 274.788C353.812 276.757 350.892 278.448 347.46 279.398C340.732 281.398 334.887 280.604 331.492 278.244C332.755 276.416 334.691 274.688 337.157 273.166C338.367 272.39 339.802 271.721 341.178 271.014C342.564 270.312 344.062 269.677 345.653 269.126C352.008 266.922 358.243 266.574 361.964 268.34V268.34Z" fill="#1166AF"/>
<path fill-rule="evenodd" clip-rule="evenodd" d="M320.273 247.513C319.422 249.128 318.975 251.225 318.987 253.703C319.001 256.183 319.483 259.052 320.129 261.961C321.581 267.854 324.439 273.11 327.763 275.576C328.933 273.767 329.766 271.353 330.122 268.659C330.278 267.297 330.411 265.923 330.236 264.413C330.073 262.911 329.777 261.379 329.337 259.854C327.574 253.743 323.971 249.414 320.273 247.513Z" fill="#1166AF"/>
<path fill-rule="evenodd" clip-rule="evenodd" d="M373.047 239.344C372.7 240.571 372.225 241.857 371.511 243.112C370.747 244.356 369.827 245.592 368.773 246.781C366.666 249.162 364.03 251.346 361.053 253.013C354.767 256.224 348.793 256.505 345.023 254.834C345.961 252.819 347.59 250.781 349.774 248.843C351.762 246.824 354.304 244.899 357.268 243.228C363.305 239.932 369.012 238.298 373.047 239.344V239.344Z" fill="#1166AF"/>
<path fill-rule="evenodd" clip-rule="evenodd" d="M328.167 226.792C327.947 227.676 327.909 228.676 327.917 229.74C327.874 230.787 327.962 231.922 328.174 233.128C328.598 235.537 329.522 238.227 330.924 241.043C333.409 246.531 337.12 251.117 340.858 252.916C341.711 250.94 342.125 248.434 342.016 245.743C341.711 242.97 340.884 240.017 339.494 237.209C336.82 231.613 332.111 227.943 328.167 226.792V226.792Z" fill="#1166AF"/>
<path fill-rule="evenodd" clip-rule="evenodd" d="M378.481 208.764C378.195 211.303 377.469 214.166 375.795 216.894C374.131 219.628 371.904 222.266 369.251 224.462C367.925 225.559 366.58 226.479 365.241 227.221C363.835 227.947 362.44 228.498 361.102 228.885C358.426 229.659 355.962 229.774 353.945 229.313C355.314 225.069 358.463 219.989 363.818 215.597C365.173 214.5 366.456 213.506 367.7 212.636C368.969 211.769 370.244 211.026 371.497 210.433C374.003 209.244 376.414 208.634 378.481 208.764V208.764Z" fill="#1166AF"/>
<path fill-rule="evenodd" clip-rule="evenodd" d="M332.031 204.99C331.865 206.801 332.522 208.943 333.338 211.22C334.163 213.491 335.53 215.95 337.395 218.437C338.326 219.681 339.321 220.849 340.355 221.925C341.313 222.982 342.308 223.944 343.329 224.79C345.369 226.478 347.49 227.696 349.493 228.22C350.712 224.074 348.863 218.012 345.223 213.071C344.329 211.832 343.263 210.723 342.121 209.754C341 208.787 339.849 207.967 338.698 207.293C336.395 205.946 334.092 205.184 332.031 204.99V204.99Z" fill="#1166AF"/>
<path fill-rule="evenodd" clip-rule="evenodd" d="M378.047 177.754C378.265 180.292 377.893 183.251 376.957 186.227C375.95 189.213 374.11 192.232 371.921 194.887C369.694 197.546 367.259 199.511 364.867 200.781C362.394 202.051 359.963 202.63 357.899 202.561C358.209 200.35 358.646 197.842 359.888 195.227C361.048 192.615 362.86 189.872 364.971 187.22C368.985 181.94 373.94 178.285 378.047 177.754V177.754Z" fill="#1166AF"/>
<path fill-rule="evenodd" clip-rule="evenodd" d="M352.061 152.416C353.999 154.069 355.815 156.433 357.243 159.208C358.626 162.039 359.444 165.478 359.751 168.908C360.04 172.365 359.687 175.472 358.879 178.058C358.016 180.697 356.692 182.82 355.179 184.224C353.843 182.432 352.392 180.342 351.436 177.609C350.422 174.935 349.783 171.712 349.418 168.341C348.562 161.766 349.514 155.681 352.061 152.416V152.416Z" fill="#1166AF"/>
<path fill-rule="evenodd" clip-rule="evenodd" d="M331.719 182.81C331.92 184.628 332.769 186.628 334.192 188.704C335.545 190.78 337.202 192.94 339.5 195.031C341.762 197.118 344.228 198.87 346.639 200.144C348.973 201.416 351.25 202.203 353.32 202.335C353.564 200.193 352.701 197.704 351.536 195.248C350.287 192.789 348.587 190.351 346.233 188.269C341.308 184.091 335.837 182.41 331.719 182.81Z" fill="#1166AF"/>
<path fill-rule="evenodd" clip-rule="evenodd" d="M197.516 362.708L204.441 369.768C204.441 369.768 227.218 340.837 263.226 327.262C263.226 327.262 223.631 335.44 197.516 362.708Z" fill="#1166AF"/>
<path fill-rule="evenodd" clip-rule="evenodd" d="M219.26 364.784C201.673 346.379 166.869 331.265 159.198 328.51C96.5278 305.993 57.7978 241.719 67.103 175.675L69.7254 176.044C60.5944 240.851 98.5993 303.923 160.094 326.016C168.383 328.995 203.053 343.988 221.175 362.952L219.26 364.784V364.784Z" fill="#1166AF"/>
<path fill-rule="evenodd" clip-rule="evenodd" d="M123.497 335.736C125.634 337.138 128.568 337.885 131.734 338.164C134.901 338.443 138.306 338.235 141.618 337.374C148.408 335.334 152.912 331.455 154.496 327.634C152.427 326.819 149.843 326.459 146.926 326.556C144.067 326.525 140.928 326.823 137.62 327.66C134.336 328.466 131.296 329.724 128.883 331.055C126.475 332.381 124.589 333.979 123.497 335.736V335.736Z" fill="#1166AF"/>
<path fill-rule="evenodd" clip-rule="evenodd" d="M147.377 295.717C148.855 296.797 150.399 298.249 151.747 300.294C153.096 302.332 154.269 304.947 155.198 307.935C157.194 313.586 157.65 319.503 156.188 323.373C154.21 322.527 152.184 320.99 150.408 318.964C148.692 316.805 147.285 314.039 146.356 311.051C145.444 308.029 145.11 305.195 145.361 302.521C145.616 299.84 146.34 297.509 147.377 295.717Z" fill="#1166AF"/>
<path fill-rule="evenodd" clip-rule="evenodd" d="M98.5021 317.332C99.4618 318.171 100.592 318.954 101.852 319.649C103.098 320.362 104.493 320.961 106.06 321.348C109.141 322.185 112.566 322.568 115.995 322.337C119.387 322.162 122.489 321.19 124.962 319.904C127.432 318.625 129.295 317.012 130.442 315.289C126.541 313.131 120.711 311.69 113.838 312.151C110.367 312.436 107.368 312.826 104.708 313.724C102.074 314.589 99.9088 315.811 98.5021 317.332V317.332Z" fill="#1166AF"/>
<path fill-rule="evenodd" clip-rule="evenodd" d="M129.537 282.565C130.206 283.186 130.815 283.967 131.364 284.891C131.9 285.829 132.392 286.886 132.903 287.969C133.87 290.192 134.57 292.924 134.93 296.019C135.251 299.166 135.334 302.062 135.021 304.689C134.707 307.325 134.005 309.668 132.915 311.427C129.192 309.24 126.305 303.644 125.569 297.504C125.153 294.478 125.586 291.366 126.298 288.832C127.035 286.267 128.18 284.127 129.537 282.565Z" fill="#1166AF"/>
<path fill-rule="evenodd" clip-rule="evenodd" d="M77.4054 294.604C79.0132 296.585 81.3393 298.46 84.089 299.958C86.8125 301.481 90.2759 302.349 93.683 302.767C97.1343 303.153 100.255 302.89 102.863 302.157C105.525 301.373 107.688 300.115 109.133 298.642C107.388 297.25 105.334 295.746 102.626 294.712C99.9953 293.611 96.7396 292.925 93.4491 292.405C86.8715 291.374 80.7462 292.157 77.4054 294.604V294.604Z" fill="#1166AF"/>
<path fill-rule="evenodd" clip-rule="evenodd" d="M114.431 266.303C115.552 267.745 116.33 269.769 116.743 272.239C117.133 274.729 117.481 277.391 117.247 280.5C117.056 283.571 116.483 286.538 115.62 289.122C114.805 291.654 113.701 293.794 112.294 295.321C110.642 293.933 109.542 291.543 108.689 288.961C107.904 286.311 107.398 283.424 107.731 280.23C108.388 273.833 111.174 268.854 114.431 266.303V266.303Z" fill="#1166AF"/>
<path fill-rule="evenodd" clip-rule="evenodd" d="M60.9094 268.34C62.1385 270.575 64.1342 272.82 66.5997 274.788C69.0606 276.757 71.9785 278.448 75.411 279.398C82.1421 281.398 87.984 280.604 91.381 278.244C90.1184 276.416 88.1823 274.688 85.7168 273.166C84.5058 272.39 83.071 271.721 81.6951 271.014C80.3072 270.312 78.8081 269.677 77.2171 269.126C70.8627 266.922 64.6301 266.574 60.9094 268.34V268.34Z" fill="#1166AF"/>
<path fill-rule="evenodd" clip-rule="evenodd" d="M102.599 247.513C103.45 249.128 103.897 251.225 103.885 253.703C103.871 256.183 103.388 259.052 102.743 261.961C101.291 267.854 98.4331 273.11 95.1091 275.576C93.939 273.767 93.1067 271.353 92.7495 268.659C92.5933 267.297 92.4613 265.923 92.6362 264.413C92.7991 262.911 93.0946 261.379 93.5369 259.854C95.2981 253.743 98.9009 249.414 102.599 247.513Z" fill="#1166AF"/>
<path fill-rule="evenodd" clip-rule="evenodd" d="M49.8249 239.344C50.1721 240.571 50.6472 241.857 51.3616 243.112C52.1249 244.356 53.0451 245.592 54.0992 246.781C56.2055 249.162 58.842 251.346 61.8181 253.013C68.1043 256.224 74.0788 256.505 77.8498 254.834C76.9109 252.819 75.2824 250.781 73.0976 248.843C71.1093 246.824 68.568 244.899 65.6032 243.228C59.5677 239.932 53.8606 238.298 49.8249 239.344V239.344Z" fill="#1166AF"/>
<path fill-rule="evenodd" clip-rule="evenodd" d="M94.705 226.792C94.9248 227.676 94.9623 228.676 94.9556 229.74C94.9979 230.787 94.9107 231.922 94.6976 233.128C94.2748 235.537 93.3499 238.227 91.9486 241.043C89.4637 246.531 85.7516 251.117 82.0162 252.916C81.1604 250.94 80.7469 248.434 80.8554 245.743C81.1583 242.97 81.988 240.017 83.3779 237.209C86.0519 231.613 90.7618 227.943 94.705 226.792Z" fill="#1166AF"/>
<path fill-rule="evenodd" clip-rule="evenodd" d="M44.3912 208.764C44.6774 211.303 45.4032 214.166 47.0766 216.894C48.7413 219.628 50.9682 222.266 53.6207 224.462C54.947 225.559 56.2927 226.479 57.6303 227.221C59.037 227.947 60.4322 228.498 61.7706 228.885C64.4465 229.659 66.91 229.774 68.9266 229.313C67.5601 225.069 64.409 219.989 59.0537 215.597C57.6993 214.5 56.4153 213.506 55.1715 212.636C53.9049 211.769 52.6282 211.026 51.375 210.433C48.8686 209.244 46.4574 208.634 44.3912 208.764V208.764Z" fill="#1166AF"/>
<path fill-rule="evenodd" clip-rule="evenodd" d="M90.8415 204.99C91.0071 206.801 90.3496 208.943 89.534 211.22C88.7111 213.491 87.3426 215.95 85.4769 218.437C84.5453 219.681 83.5502 220.849 82.5174 221.925C81.5598 222.982 80.5646 223.944 79.5433 224.79C77.5026 226.478 75.3822 227.696 73.3798 228.22C72.1594 224.074 74.0084 218.012 77.6494 213.071C78.5427 211.832 79.6089 210.723 80.7509 209.754C81.8714 208.787 83.0227 207.967 84.1741 207.293C86.4774 205.946 88.7801 205.184 90.8415 204.99V204.99Z" fill="#1166AF"/>
<path fill-rule="evenodd" clip-rule="evenodd" d="M44.8255 177.754C44.6077 180.292 44.979 183.251 45.9152 186.227C46.9225 189.213 48.7614 192.232 50.9535 194.887C53.1777 197.546 55.6131 199.511 58.0056 200.781C60.4785 202.051 62.9085 202.63 64.9726 202.561C64.663 200.35 64.2254 197.842 62.9842 195.227C61.8235 192.615 60.0127 189.872 57.9017 187.22C53.8868 181.94 48.9316 178.285 44.8255 177.754V177.754Z" fill="#1166AF"/>
<path fill-rule="evenodd" clip-rule="evenodd" d="M70.8117 152.416C68.8729 154.069 67.0575 156.433 65.6294 159.208C64.2461 162.039 63.4285 165.478 63.1209 168.908C62.8328 172.365 63.1846 175.472 63.9935 178.058C64.856 180.697 66.1802 182.82 67.6935 184.224C69.0291 182.432 70.4807 180.342 71.4356 177.609C72.4503 174.935 73.0883 171.712 73.4548 168.341C74.3106 161.766 73.3577 155.681 70.8117 152.416V152.416Z" fill="#1166AF"/>
<path fill-rule="evenodd" clip-rule="evenodd" d="M91.1531 182.81C90.9521 184.628 90.103 186.628 88.6802 188.704C87.3279 190.78 85.6706 192.94 83.3726 195.031C81.1101 197.118 78.6439 198.87 76.2327 200.144C73.8992 201.416 71.6226 202.203 69.5511 202.335C69.3079 200.193 70.171 197.704 71.3365 195.248C72.585 192.789 74.2845 190.351 76.6394 188.269C81.5638 184.091 87.0343 182.41 91.1531 182.81V182.81Z" fill="#1166AF"/>
<path fill-rule="evenodd" clip-rule="evenodd" d="M225.356 362.708L218.432 369.768C218.432 369.768 195.655 340.837 159.646 327.262C159.646 327.262 199.242 335.44 225.356 362.708Z" fill="#1166AF"/>
<path style="fill:white;" fill-rule="evenodd" clip-rule="evenodd" d="M19.3111 467.612C22.4294 467.193 25.1697 466.21 27.5239 464.676C29.8789 463.146 31.8552 461.103 33.4488 458.552C35.0425 456.006 36.2548 452.928 37.0851 449.315C37.9148 445.705 38.333 441.634 38.3377 437.083C38.3467 431.163 37.5744 426.283 36.0162 422.392C34.4608 418.501 32.1769 415.59 29.1719 413.67C26.1695 411.753 22.481 410.782 18.1169 410.81C17.94 410.815 17.8522 410.817 17.6752 410.821L17.635 467.721C18.3039 467.675 18.6396 467.654 19.3111 467.612V467.612ZM1.57261 482.806C1.07871 478.594 0.832704 476.48 0.338104 472.243C2.6314 471.26 3.77811 470.773 6.07141 469.815C6.07881 449.883 6.0834 429.953 6.0881 410.025C3.8585 409.69 2.74541 409.521 0.515709 409.179V398.407C6.81591 398.405 9.96771 398.402 16.2679 398.4C22.6941 398.854 29.0539 399.608 34.7161 402.689C39.3121 405.188 44.2056 410.37 46.4212 415.157C49.3692 421.538 50.4777 428.898 50.4542 435.929C50.4307 443.223 49.388 450.755 47.0143 457.611C45.1941 462.869 41.0873 468.95 36.8318 472.498C31.9926 476.534 26.1032 478.304 20.0061 479.763C13.8567 480.749 7.71461 481.761 1.57261 482.806V482.806Z" fill="#1166AF"/>
<path style="fill:white;" fill-rule="evenodd" clip-rule="evenodd" d="M56.9266 474.52C56.4374 470.662 56.1935 468.728 55.7063 464.85C58.1845 464.002 59.423 463.583 61.8986 462.753C61.9341 444.868 61.9669 426.978 62.0024 409.091C59.5959 408.828 58.395 408.696 55.9877 408.426C55.9947 404.41 55.9967 402.4 56.0045 398.383C63.6765 398.378 71.3458 398.376 79.0172 398.374C79.5372 402.337 79.7999 404.311 80.3227 408.256C77.632 408.807 76.2843 409.084 73.5942 409.647L73.483 461.912C76.1026 462.174 77.4095 462.304 80.0271 462.569C79.9842 466.269 79.9628 468.12 79.9206 471.825C72.2465 472.65 64.5819 473.551 56.9266 474.52V474.52Z" fill="#1166AF"/>
<path style="fill:white;" fill-rule="evenodd" clip-rule="evenodd" d="M104.334 435.707C104.653 435.693 104.811 435.686 105.131 435.669C109.733 435.39 113.216 434.648 115.58 433.439C117.942 432.229 119.555 430.588 120.415 428.508C121.276 426.427 121.708 424.014 121.715 421.255C121.722 417.491 120.725 414.521 118.722 412.325C116.722 410.131 113.566 409.048 109.258 409.105C107.313 409.129 106.338 409.143 104.391 409.169C104.371 418.016 104.353 426.86 104.334 435.707ZM87.7065 471.011C87.2173 467.443 86.9733 465.659 86.4868 462.08C88.9664 461.269 90.2055 460.869 92.6851 460.077C92.7233 442.918 92.7609 425.761 92.7991 408.604C90.3925 408.344 89.1889 408.214 86.7823 407.954C86.7913 404.121 86.7964 402.207 86.8031 398.372C94.1796 398.372 101.553 398.369 108.93 398.367C113.117 398.367 116.777 398.91 119.9 399.981C123.023 401.052 125.616 402.587 127.68 404.577C129.739 406.568 131.286 408.97 132.312 411.784C133.338 414.597 133.849 417.76 133.841 421.278C133.834 425.997 132.896 430.153 131.031 433.778C129.163 437.404 126.351 440.303 122.599 442.49C118.848 444.676 114.136 445.939 108.471 446.263C106.804 446.36 105.975 446.407 104.31 446.506C104.298 451.32 104.294 453.729 104.284 458.542C109.662 459.088 112.356 459.365 117.737 459.935C117.519 463.311 117.407 464.999 117.188 468.379C107.35 469.165 97.5271 470.039 87.7065 471.011V471.011Z" fill="#1166AF"/>
<path style="fill:white;" fill-rule="evenodd" clip-rule="evenodd" d="M139.248 466.878C138.759 463.416 138.513 461.686 138.024 458.215C140.329 457.579 141.48 457.265 143.785 456.643C143.814 440.378 143.842 424.109 143.87 407.844C141.641 407.584 140.525 407.454 138.296 407.194C138.303 403.662 138.305 401.893 138.312 398.361C145.802 398.359 153.294 398.359 160.784 398.359C161.311 401.91 161.573 403.686 162.101 407.232C159.443 407.792 158.114 408.073 155.459 408.643C155.438 424.344 155.412 440.047 155.391 455.75C161.379 455.518 164.372 455.416 170.364 455.246C171.678 451.364 172.337 449.427 173.652 445.56C176.451 445.501 177.851 445.472 180.65 445.423C180.023 452.01 179.397 458.599 178.77 465.188C165.587 465.578 152.417 466.14 139.248 466.878V466.878Z" fill="#1166AF"/>
<path style="fill:white;" fill-rule="evenodd" clip-rule="evenodd" d="M210.062 455.047C212.13 455.045 214.005 454.456 215.689 453.274C217.371 452.095 218.804 450.452 219.986 448.343C221.167 446.234 222.081 443.773 222.729 440.955C223.38 438.139 223.703 435.094 223.703 431.824C223.7 428.555 223.374 425.491 222.724 422.637C222.074 419.781 221.157 417.277 219.977 415.131C218.798 412.981 217.365 411.299 215.684 410.078C214.003 408.861 212.128 408.253 210.062 408.253C207.939 408.253 206.036 408.863 204.354 410.081C202.673 411.301 201.241 412.987 200.061 415.135C198.879 417.287 197.964 419.79 197.314 422.646C196.664 425.505 196.338 428.569 196.335 431.841C196.333 435.113 196.659 438.158 197.305 440.973C197.955 443.791 198.87 446.253 200.049 448.359C201.231 450.468 202.664 452.109 204.348 453.286C206.028 454.464 207.936 455.05 210.062 455.047V455.047ZM210.062 465.138C205.866 465.143 202.156 464.351 198.936 462.748C195.716 461.145 193.014 458.854 190.832 455.87C188.647 452.882 186.994 449.34 185.876 445.241C184.758 441.144 184.2 436.645 184.203 431.753C184.208 426.798 184.772 422.273 185.895 418.18C187.018 414.09 188.675 410.547 190.857 407.556C193.042 404.566 195.744 402.251 198.959 400.615C202.175 398.978 205.875 398.163 210.064 398.163C214.251 398.163 217.939 398.978 221.124 400.615C224.308 402.248 226.996 404.561 229.178 407.549C231.363 410.537 233.018 414.078 234.143 418.164C235.266 422.249 235.831 426.775 235.834 431.722C235.839 436.609 235.28 441.106 234.16 445.201C233.042 449.3 231.389 452.842 229.205 455.83C227.02 458.821 224.334 461.112 221.142 462.724C217.951 464.332 214.256 465.133 210.062 465.138V465.138Z" fill="#1166AF"/>
<path style="fill:white;" fill-rule="evenodd" clip-rule="evenodd" d="M242.861 465.154C242.646 461.785 242.537 460.1 242.322 456.731C244.412 456.468 245.459 456.338 247.549 456.083C247.533 440.07 247.516 424.055 247.5 408.043C245.552 407.802 244.58 407.681 242.632 407.443C242.627 403.808 242.627 401.99 242.623 398.356C250.202 398.356 257.782 398.356 265.362 398.359C269.667 415.233 273.944 432.11 278.19 449C282.476 432.132 286.727 415.251 290.932 398.364C297.985 398.364 305.035 398.366 312.085 398.366C312.624 402.163 312.896 404.066 313.435 407.875C311.487 408.343 310.515 408.577 308.567 409.04C308.605 425.713 308.641 442.388 308.675 459.06C310.484 459.469 311.388 459.677 313.194 460.093C313.201 463.649 313.206 465.429 313.212 468.984C306.954 468.481 300.697 468.008 294.434 467.566C294.11 463.937 293.945 462.126 293.621 458.504C295.178 458.076 295.956 457.861 297.514 457.431C297.481 440.891 297.448 424.349 297.413 407.807C292.578 427.065 287.684 446.309 282.736 465.54C277.986 465.266 275.615 465.142 270.866 464.916C266.061 445.995 261.222 427.087 256.349 408.183C256.371 424.136 256.389 440.09 256.411 456.043C258.039 456.523 258.858 456.764 260.487 457.251C260.527 460.646 260.546 462.344 260.588 465.738C254.682 465.498 248.772 465.301 242.862 465.154L242.861 465.154Z" fill="#1166AF"/>
<path style="fill:white;" fill-rule="evenodd" clip-rule="evenodd" d="M337.746 437.202C342.03 437.438 344.172 437.561 348.453 437.819C346.881 429.707 345.299 421.596 343.711 413.489C341.734 421.395 339.746 429.301 337.746 437.202ZM318.348 469.423C317.88 466.173 317.646 464.55 317.177 461.311C319.125 460.723 320.097 460.428 322.043 459.836C327.949 439.379 333.746 418.894 339.431 398.375C343.822 398.375 346.016 398.378 350.406 398.378C356.523 420.279 362.494 442.222 368.313 464.206C369.941 465.182 370.755 465.674 372.384 466.667C372.036 470.102 371.861 471.816 371.513 475.24C363.861 474.234 356.196 473.301 348.527 472.438C348.52 469.222 348.515 467.615 348.51 464.4C351.338 463.783 352.752 463.473 355.579 462.851C354.296 457.435 353.654 454.74 352.371 449.378C346.593 448.916 340.81 448.486 335.027 448.087C333.693 453.293 333.027 455.881 331.694 461.04C334.81 461.976 336.368 462.452 339.484 463.419C339.491 466.636 339.496 468.244 339.503 471.459C332.457 470.719 325.405 470.041 318.348 469.423V469.423Z" fill="#1166AF"/>
<path style="fill:white;" fill-rule="evenodd" clip-rule="evenodd" d="M381.233 476.555C380.874 472.886 380.694 471.054 380.337 467.396C384.399 466.902 386.429 466.654 390.494 466.15L390.423 410.472C386.424 410.382 384.425 410.337 380.425 410.252C378.911 414.738 378.153 416.966 376.639 421.394C373.913 421.283 372.552 421.228 369.828 421.125C370.377 413.545 370.923 405.965 371.469 398.386C387.841 398.391 404.215 398.397 420.587 398.407C421.237 406.733 421.887 415.06 422.533 423.387C419.847 423.25 418.502 423.181 415.814 423.047C414.258 418.186 413.478 415.774 411.92 410.989C407.887 410.885 405.868 410.835 401.834 410.738C401.851 429.702 401.868 448.662 401.884 467.623C405.981 469.205 408.029 470.013 412.123 471.666C411.773 475.451 411.597 477.34 411.246 481.113C401.255 479.498 391.252 477.98 381.233 476.555V476.555Z" fill="#1166AF"/>
<path style="fill:white;" fill-rule="evenodd" clip-rule="evenodd" d="M55.3243 531.524C53.2957 531.524 51.4896 531.113 49.91 530.293C48.3331 529.47 47.092 528.312 46.1913 526.812C45.2886 525.316 44.8369 523.567 44.8369 521.569V501.031L42.035 500.84V497.939H50.5889L50.7826 500.646L48.1254 501.031V521.037C48.1254 523.326 48.7828 525.106 50.1044 526.378C51.4259 527.649 53.2629 528.285 55.6151 528.285C56.9675 528.285 58.206 528.044 59.3339 527.562C60.4617 527.08 61.3718 526.304 62.0668 525.243C62.757 524.179 63.1049 522.777 63.1049 521.037V501.031L60.3505 500.84V497.939H68.566L68.7577 500.646L66.1005 501.031V521.569C66.1005 523.663 65.618 525.46 64.6509 526.956C63.6839 528.456 62.3858 529.59 60.762 530.364C59.1328 531.137 57.322 531.524 55.3243 531.524V531.524Z" fill="#1166AF"/>
<path style="fill:white;" fill-rule="evenodd" clip-rule="evenodd" d="M84.1734 531.331L83.7861 528.624L86.59 528.044V501.031L83.7861 500.79V497.939H91.8575L104.906 527.706V501.128L101.811 500.646V497.939H110.414L110.896 500.646L107.95 501.225V531.331H102.874L89.5856 500.934V528.141L92.8245 528.624V531.331H84.1734V531.331Z" fill="#1166AF"/>
<path style="fill:white;" fill-rule="evenodd" clip-rule="evenodd" d="M126.65 531.331L126.457 528.624L129.066 528.239V501.031L126.312 500.84V497.939H134.818L135.01 500.646L132.402 501.031V528.239L135.157 528.432V531.331H126.65V531.331Z" fill="#1166AF"/>
<path style="fill:white;" fill-rule="evenodd" clip-rule="evenodd" d="M160.382 531.331L150.572 501.081L148.833 500.211V497.939H158.353V500.064L154.1 501.081L162.169 525.966L170.431 500.934L166.036 500.114V497.939H175.505V500.211L173.574 501.081L163.523 531.331H160.382Z" fill="#1166AF"/>
<path style="fill:white;" fill-rule="evenodd" clip-rule="evenodd" d="M189.231 531.331L188.893 528.624L191.647 528.044V501.031L188.893 500.79V497.939H208.125L209.092 506.202H206.771L205.13 501.225H194.981V513.112H202.811V516.157H194.981V528.044H205.612L207.305 523.068H209.575L208.657 531.331H189.231V531.331Z" fill="#1166AF"/>
<path style="fill:white;" fill-rule="evenodd" clip-rule="evenodd" d="M230.887 515.287H233.497C235.107 515.287 236.596 515.086 237.965 514.684C239.334 514.282 240.445 513.557 241.301 512.509C242.155 511.462 242.58 510.005 242.58 508.135C242.58 506.492 242.226 505.163 241.519 504.149C240.809 503.133 239.843 502.392 238.62 501.927C237.393 501.459 236.01 501.225 234.461 501.225H230.887V515.287V515.287ZM225.135 531.33L224.797 528.673L227.551 528.044V501.031L224.797 500.79V497.938H233.206C235.686 497.938 237.894 498.293 239.826 499.003C241.76 499.712 243.273 500.814 244.37 502.313C245.465 503.811 246.011 505.736 246.011 508.088C246.011 510.698 245.311 512.781 243.909 514.346C242.509 515.909 240.776 517.027 238.715 517.703L243.644 528.191L246.786 528.867V531.33H241.081L235.284 518.478C234.672 518.509 234.043 518.533 233.398 518.549C232.754 518.566 231.917 518.573 230.887 518.573V527.947L234.656 528.867V531.33H225.135Z" fill="#1166AF"/>
<path style="fill:white;" fill-rule="evenodd" clip-rule="evenodd" d="M270.318 531.524C268.933 531.524 267.54 531.404 266.138 531.162C264.736 530.922 263.424 530.51 262.2 529.929L261.668 522.489H264.472L265.777 527.271C266.387 527.562 267.12 527.796 267.975 527.973C268.829 528.151 269.609 528.239 270.318 528.239C271.446 528.239 272.534 528.037 273.581 527.633C274.626 527.231 275.491 526.611 276.168 525.772C276.844 524.935 277.181 523.874 277.181 522.583C277.181 521.746 277.061 520.983 276.819 520.29C276.576 519.597 276.158 518.951 275.562 518.356C274.966 517.76 274.12 517.188 273.025 516.639C271.737 515.997 270.432 515.394 269.11 514.829C267.788 514.266 266.566 513.614 265.439 512.871C264.308 512.131 263.401 511.228 262.708 510.164C262.016 509.103 261.668 507.781 261.668 506.202C261.668 504.495 262.119 503.022 263.022 501.781C263.923 500.542 265.124 499.589 266.623 498.93C268.119 498.269 269.739 497.939 271.479 497.939C272.831 497.939 274.113 498.083 275.321 498.374C276.527 498.665 277.728 499.034 278.922 499.485L279.548 506.927H276.891L274.86 501.804C274.25 501.547 273.638 501.378 273.025 501.296C272.413 501.218 271.768 501.178 271.092 501.178C270.125 501.178 269.184 501.346 268.264 501.684C267.347 502.022 266.59 502.537 265.994 503.23C265.396 503.922 265.098 504.786 265.098 505.814C265.098 506.881 265.349 507.781 265.848 508.523C266.346 509.264 267.008 509.883 267.829 510.381C268.652 510.883 269.545 511.332 270.512 511.737C271.479 512.138 272.429 512.549 273.363 512.968C275.328 513.871 276.825 514.821 277.858 515.819C278.888 516.817 279.605 517.848 280.009 518.911C280.411 519.975 280.612 521.07 280.612 522.198C280.612 523.68 280.338 524.992 279.789 526.136C279.241 527.281 278.487 528.255 277.52 529.061C276.553 529.865 275.448 530.479 274.21 530.896C272.969 531.317 271.671 531.524 270.318 531.524V531.524Z" fill="#1166AF"/>
<path style="fill:white;" fill-rule="evenodd" clip-rule="evenodd" d="M296.414 531.331L296.221 528.624L298.83 528.239V501.031L296.077 500.84V497.939H304.58L304.774 500.646L302.164 501.031V528.239L304.918 528.432V531.331H296.414V531.331Z" fill="#1166AF"/>
<path style="fill:white;" fill-rule="evenodd" clip-rule="evenodd" d="M324.346 531.331V528.82L329.807 527.948V501.225H323.185L321.301 505.913H319.079L320.19 497.939H342.662L343.773 505.913H341.551L339.663 501.225H333.094V527.948L338.649 528.82V531.331H324.346V531.331Z" fill="#1166AF"/>
<path style="fill:white;" fill-rule="evenodd" clip-rule="evenodd" d="M361.604 531.331L361.119 528.82L366.727 527.948V518.911L357.689 501.275L355.611 500.84V497.939H364.408V500.499L361.361 500.984L368.706 515.384L375.472 500.934L372.524 500.549V497.939H380.836V500.84L378.758 501.322L370.011 519.587V527.948L375.569 528.82L375.134 531.331H361.604V531.331Z" fill="#1166AF"/>
</svg>
